<?xml version="1.0" encoding="utf-8"?>
<!-- Generator: Adobe Illustrator 27.0.0, SVG Export Plug-In . SVG Version: 6.00 Build 0)  -->
<svg version="1.1" id="Camada_1" xmlns="http://www.w3.org/2000/svg" xmlns:xlink="http://www.w3.org/1999/xlink" x="0px" y="0px"
	 viewBox="0 0 1704.4 768" style="enable-background:new 0 0 1704.4 768;" xml:space="preserve">
<style type="text/css">
	.st0{fill:#FFFFFF;}
	.st1{fill:#0CD2AB;}
</style>
<g>
	<path class="st0" d="M236.2,652.6c-6.4-5.8-5.3-12.2,1.1-18.1l23.9-20.2c5.8-5.3,11.7-4.8,18.1,0c17,13.8,35.6,17,51.6,17
		c22.9,0,64.3-12.8,64.3-65.4v-9c-16.5,18.6-39.9,30.3-70.7,30.3c-67,0-115.4-53.7-115.4-126.5s48.4-126,115.4-126
		c30.6,0,53.9,11,70.4,29.9c0.1,0.1,0.3,0.1,0.3-0.1v-13.1c0-7.2,5.8-13,13-13h40.5c7.2,0,13,5.8,13,13v214.6
		c0,70.2-46.2,121.2-130.8,121.2C292,687.1,259,673.8,236.2,652.6z M395.1,460.3c-0.2-34-21.3-59.7-53.8-63
		c-36.6-3.8-67.9,26.4-68,63.2c-0.1,34.2,20.6,60.1,53.1,63.6C363.4,528,395.3,497.5,395.1,460.3z"/>
	<path class="st0" d="M511,528.2V348.4c0-5.9,4.8-10.7,10.7-10.7H555c5.9,0,10.7,4.8,10.7,10.7v25c0,0.2,0.2,0.3,0.4,0.1
		c14.9-23.2,37-34.9,59.6-37.9c7-0.9,10.9,3.1,10.9,10.1v30.2c0,6.6-3.5,10.1-10.1,10.5c-23.2,2.2-60.8,11.4-60.8,60.4v81.6
		c0,5.9-4.8,10.7-10.7,10.7h-33.3C515.8,538.9,511,534.1,511,528.2z"/>
	<path class="st0" d="M661.2,438.3c0-60.8,40.2-103.7,95.4-103.7c25.2,0,43.9,9,57.4,24.1c0.1,0.1,0.3,0,0.3-0.1v-10.2
		c0-5.9,4.8-10.7,10.7-10.7h33.3c5.9,0,10.7,4.8,10.7,10.7v179.8c0,5.9-4.8,10.7-10.7,10.7H825c-5.9,0-10.7-4.8-10.7-10.7v-9.8
		c0-0.2-0.2-0.3-0.3-0.1c-13.5,15.1-32.2,24.1-57.4,24.1C701.5,542.4,661.2,498.2,661.2,438.3z M814.1,443.8
		c2.7-34.9-20.2-61-55.6-57.7c-22.8,2.1-40.9,20.6-43.8,43.3c-4.4,35.4,17.7,62.7,52.2,61.4C792.2,489.8,812.1,469.1,814.1,443.8z"
		/>
	<path class="st0" d="M918.4,528.2V348.4c0-5.9,4.8-10.7,10.7-10.7h33.5c6.6,0,10.5,3.5,10.5,9.6v9.6c15.3-16.6,36.7-22.3,56.4-22.3
		c36.3,0,78.3,19.7,78.3,81.4v112.2c0,5.9-4.8,10.7-10.7,10.7h-33.3c-5.9,0-10.7-4.8-10.7-10.7V424.3c0-35.4-24.9-43.7-40.2-43.7
		c-15.8,0-39.8,8.3-39.8,43.7v103.9c0,5.9-4.8,10.7-10.7,10.7h-33.3C923.2,538.9,918.4,534.1,918.4,528.2z"/>
	<path class="st0" d="M1157.2,480.7V379.5c0-0.1-0.1-0.2-0.2-0.2h-15.3c-5.9,0-10.7-4.8-10.7-10.7v-20.2c0-5.9,4.8-10.7,10.7-10.7
		h15.3c0.1,0,0.2-0.1,0.2-0.2v-50.8c0-5.9,4.8-10.7,10.7-10.7h33.3c5.9,0,10.7,4.8,10.7,10.7v50.8c0,0.1,0.1,0.2,0.2,0.2h32
		c5.9,0,10.7,4.8,10.7,10.7v20.2c0,5.9-4.8,10.7-10.7,10.7h-32c-0.1,0-0.2,0.1-0.2,0.2V472c0,23.6,14.4,24.5,27.1,24.5h2.9
		c5.9,0,10.7,4.8,10.7,10.7v21c0,5.9-4.8,10.7-10.7,10.7h-25.6C1176,538.9,1157.2,517.9,1157.2,480.7z"/>
	<path class="st0" d="M1262.8,418c6.9-44.2,43.5-78.8,88-83.4c68.7-7.2,117.8,38.4,117.8,103.8c0,59.9-42.4,105-103.7,105
		C1297.3,543.3,1251.9,487.7,1262.8,418z M1414.6,442.1c1.8-31.3-23.1-58.7-54.4-56.1c-27.2,2.2-45.2,23.7-45.2,52.3
		c0,30.2,20.1,52.5,49.9,52.5C1393.7,490.8,1413,470.4,1414.6,442.1z"/>
	<g>
		<path class="st0" d="M919.1,625c-1.3-2.1-0.7-3.9,1.5-5.4l7.7-5.1c2-1.3,3.6-0.8,5.2,1c3.6,3.9,10.6,8,18,8c7,0,10.8-2.1,10.8-7
			c0-6-9.7-7.7-15.5-9.7c-5.9-2-26-6.7-26-23.2c0-16,14.1-22.9,30.3-22.9c14.2,0,24.2,5.7,29.1,12.6c1.5,2.1,0.8,4.1-1.3,5.4
			l-6.9,4.4c-2,1.3-3.8,1-5.6-0.7c-3.6-3.1-9.8-6.2-16-6.2c-6.7,0-9.7,2.6-9.7,6.4c0,6,9.3,7.7,15.2,9.7s26.3,7.2,26.3,23.4
			c0,15.9-11.8,24.2-31.1,24.2C934.8,639.9,924,632.8,919.1,625z"/>
		<path class="st0" d="M992.8,600c0-21.2,13.2-37.3,33.9-39c21.6-1.7,39.7,16.2,39.7,37.8v2.7c0,2.5-1.5,3.9-3.9,3.9h-49.8
			c-0.1,0-0.2,0.1-0.2,0.3c2,10,9.3,15.9,18.6,15.9c7.7,0,12.5-2.7,15.6-5.6c1.5-1.4,3.7-1.4,5.3-0.2l7.6,5.6
			c2.1,1.6,2.6,3.3,1.1,5.1c-6.7,7.8-17.2,12.6-29.6,12.6C1008,639.2,992.8,622.4,992.8,600z M1047,592.6c0.1,0,0.2-0.1,0.2-0.3
			c-1.8-8.7-7.4-15.3-17-15.3c-9.2,0-15.4,5.9-17.4,15.3c0,0.1,0.1,0.3,0.2,0.3H1047z"/>
		<path class="st0" d="M1087.2,659c-2-1.8-1.6-3.8,0.3-5.6l7.4-6.2c1.8-1.6,3.6-1.5,5.6,0c5.2,4.2,11,5.2,15.9,5.2
			c7,0,19.8-3.9,19.8-20.1v-2.8c-5.1,5.7-12.3,9.3-21.8,9.3c-20.6,0-35.5-16.5-35.5-38.9c0-22.4,14.9-38.8,35.5-38.8
			c9.5,0,16.7,3.4,21.8,9.3v-4c0-2.3,1.9-4.1,4.1-4.1h12.2c2.3,0,4.1,1.8,4.1,4.1v65.9c0,21.6-14.2,37.3-40.2,37.3
			C1104.4,669.6,1094.2,665.5,1087.2,659z M1136.1,599.7c-0.1-12.2-9.1-20.9-22-19.2c-7.5,1-13.6,7-15,14.4
			c-2.3,12.9,4.3,23.2,15.8,24.5C1126.2,620.7,1136.2,611.1,1136.1,599.7z"/>
		<path class="st0" d="M1174.5,608.5v-42c0-2.3,1.8-4.1,4.1-4.1h12.2c2.3,0,4.1,1.8,4.1,4.1v38.7c0,13.2,9.3,16.4,15.2,16.4
			s14.7-3.1,14.7-16.4v-38.7c0-2.3,1.8-4.1,4.1-4.1h12.2c2.3,0,4.1,1.8,4.1,4.1v67c0,2.3-1.9,4.1-4.1,4.1h-12.4
			c-2.5,0-3.9-1.3-3.9-3.4v-3.4c-5.7,6-13.6,8.2-20.9,8.2C1190.4,638.9,1174.5,631.5,1174.5,608.5z"/>
		<path class="st0" d="M1263.3,633.5v-67c0-2.3,1.8-4.1,4.1-4.1h12.2c2.3,0,4.1,1.8,4.1,4.1v9.5c5.5-8.7,13.6-13.1,22-14.3
			c2.5-0.4,4.5,1.4,4.5,3.9v11c0,2.5-1.3,3.8-3.8,3.9c-8.7,0.8-22.7,4.2-22.7,22.6v30.4c0,2.3-1.8,4.1-4.1,4.1h-12.2
			C1265.2,637.6,1263.3,635.7,1263.3,633.5z"/>
		<path class="st0" d="M1318.2,590.8c2.6-14,16.9-27.5,31.1-29.4c26.5-3.6,45.6,13.7,45.6,38.6c0,22.4-15.9,39.2-38.8,39.2
			C1330.3,639.2,1313.2,617.6,1318.2,590.8z M1374.6,597.7c-0.8-9-7.8-16.6-16.9-17.3c-12-0.9-20.3,7.7-20.3,19.6
			c0,11.3,7.5,19.6,18.6,19.6C1368.1,619.6,1375.7,610.1,1374.6,597.7z"/>
		<path class="st0" d="M1405.6,625c-1.3-2.1-0.6-3.9,1.5-5.4l7.7-5.1c2-1.3,3.6-0.8,5.2,1c3.6,3.9,10.6,8,18,8c7,0,10.8-2.1,10.8-7
			c0-6-9.7-7.7-15.5-9.7c-5.9-2-26-6.7-26-23.2c0-16,14.1-22.9,30.3-22.9c14.2,0,24.2,5.7,29.1,12.6c1.5,2.1,0.8,4.1-1.3,5.4
			l-6.9,4.4c-2,1.3-3.8,1-5.6-0.7c-3.6-3.1-9.8-6.2-16-6.2c-6.7,0-9.7,2.6-9.7,6.4c0,6,9.3,7.7,15.2,9.7s26.3,7.2,26.3,23.4
			c0,15.9-11.8,24.2-31.1,24.2C1421.3,639.9,1410.5,632.8,1405.6,625z"/>
	</g>
	<path class="st1" d="M918,190c144-165.4,438.2-116.7,532.4,78.1c5.7,12.2,10.6,24.6,14.2,37.5c0.1,0.2-0.2,0.3-0.3,0.2
		c-5.3-4-10.3-8.1-15.3-12.1c-14-11.1-31.6-24.4-46.4-34.5C1251.3,155.2,1092,139.8,918,190L918,190z"/>
</g>
</svg>
