<?xml version="1.0" encoding="utf-8"?>
<!-- Generator: Adobe Illustrator 27.0.0, SVG Export Plug-In . SVG Version: 6.00 Build 0)  -->
<svg version="1.1" id="Camada_1" xmlns="http://www.w3.org/2000/svg" xmlns:xlink="http://www.w3.org/1999/xlink" x="0px" y="0px"
	 viewBox="0 0 762.2 443" style="enable-background:new 0 0 762.2 443;" xml:space="preserve">
<style type="text/css">
	.st0{fill:#333333;}
	.st1{fill:#999999;}
	.st2{fill:#0CD2AB;}
</style>
<g>
	<path class="st0" d="M74,351.4c-3.3-3-2.8-6.4,0.6-9.4L87,331.5c3-2.8,6.1-2.5,9.4,0c8.8,7.2,18.5,8.8,26.8,8.8
		c11.9,0,33.4-6.6,33.4-34v-4.7c-8.6,9.7-20.7,15.7-36.7,15.7c-34.8,0-59.9-27.9-59.9-65.7s25.1-65.5,59.9-65.5
		c16,0,28.2,5.8,36.7,15.7v-7.2c0-4.1,2.5-6.6,6.6-6.6h21.3c4.1,0,6.6,2.5,6.6,6.6v111.6c0,36.5-24,63-68,63
		C103,369.3,85.9,362.4,74,351.4z M156.6,251.6c0-19.1-12.7-33.1-31.8-33.1s-31.5,14.1-31.5,33.1s12.4,33.1,31.5,33.1
		C143.9,284.8,156.6,270.7,156.6,251.6z"/>
	<path class="st0" d="M216.8,286.8v-93.6c0-3.4,2-5.5,5.5-5.5h17.5c3.4,0,5.5,2,5.5,5.5v13.4c7.7-12.3,19.3-18.4,31.1-20
		c3.6-0.5,5.7,1.6,5.7,5.2v15.7c0,3.4-1.8,5.2-5.2,5.5c-12,1.1-31.6,5.9-31.6,31.4v42.5c0,3.4-2,5.5-5.5,5.5h-17.5
		C218.9,292.3,216.8,290.3,216.8,286.8z"/>
	<path class="st0" d="M294.9,240c0-31.6,20.9-53.9,49.5-53.9c13.2,0,23,4.8,30,12.7v-5.7c0-3.4,2-5.5,5.5-5.5h17.5
		c3.4,0,5.5,2,5.5,5.5v93.6c0,3.4-2,5.5-5.5,5.5h-17.5c-3.4,0-5.5-2-5.5-5.5v-5.3c-7,8-16.8,12.7-30,12.7
		C315.8,294.1,294.9,271.2,294.9,240z M374.4,240c0-15.7-10.2-27.3-25.9-27.3s-26.1,11.6-26.1,27.3s10.5,27.3,26.1,27.3
		S374.4,255.7,374.4,240z"/>
	<path class="st0" d="M428.5,286.8v-93.6c0-3.4,2-5.5,5.5-5.5h17.5c3.4,0,5.5,1.8,5.5,5v5c8-8.6,19.1-11.6,29.3-11.6
		c18.9,0,40.7,10.2,40.7,42.3v58.4c0,3.4-2,5.5-5.5,5.5H504c-3.4,0-5.5-2-5.5-5.5v-54.1c0-18.4-13-22.7-20.9-22.7
		c-8.2,0-20.7,4.3-20.7,22.7v54.1c0,3.4-2,5.5-5.5,5.5H434C430.6,292.3,428.5,290.3,428.5,286.8z"/>
	<path class="st0" d="M552.6,262.1v-52.7h-8.2c-3.4,0-5.5-2-5.5-5.5v-10.7c0-3.4,2-5.5,5.5-5.5h8.2v-26.6c0-3.4,2-5.5,5.5-5.5h17.5
		c3.4,0,5.5,2,5.5,5.5v26.6h16.8c3.4,0,5.5,2,5.5,5.5v10.7c0,3.4-2,5.5-5.5,5.5H581v48.2c0,12.3,7.5,12.7,14.1,12.7h1.6
		c3.4,0,5.5,2,5.5,5.5v11.1c0,3.4-2,5.5-5.5,5.5h-13.4C562.4,292.3,552.6,281.4,552.6,262.1z"/>
	<path class="st0" d="M606.6,240c0-31.6,22.3-54.3,53.9-54.3c31.8,0,53.9,22.7,53.9,54.3c0,31.1-22,54.5-53.9,54.5
		C628.9,294.6,606.6,271.2,606.6,240z M686.4,240c0-15.7-10.2-27.3-25.9-27.3c-15.5,0-25.9,11.6-25.9,27.3s10.5,27.3,25.9,27.3
		C676.2,267.3,686.4,255.7,686.4,240z"/>
	<g>
		<path class="st1" d="M428.9,337c-0.7-1.1-0.3-2,0.8-2.8l4-2.6c1-0.7,1.9-0.4,2.7,0.5c1.9,2,5.5,4.2,9.3,4.2c3.7,0,5.6-1.1,5.6-3.7
			c0-3.1-5-4-8.1-5s-13.5-3.5-13.5-12.1c0-8.3,7.3-11.9,15.7-11.9c7.4,0,12.6,3,15.1,6.5c0.8,1.1,0.4,2.1-0.7,2.8l-3.6,2.3
			c-1,0.7-2,0.5-2.9-0.3c-1.9-1.6-5.1-3.2-8.3-3.2c-3.5,0-5,1.4-5,3.3c0,3.1,4.8,4,7.9,5s13.7,3.7,13.7,12.2
			c0,8.2-6.1,12.6-16.1,12.6C437,344.8,431.4,341.1,428.9,337z"/>
		<path class="st1" d="M467.2,324c0-11.6,7.6-20.3,19.5-20.3c11.6,0,18.8,8.7,18.8,20.3v0.8c0,1.3-0.8,2-2,2h-26
			c1,5.3,4.8,8.4,9.7,8.4c3.9,0,6.4-1.4,8-2.8c0.9-0.8,1.8-1,2.8-0.3l4,3c1.1,0.8,1.4,1.7,0.6,2.6c-3.5,4.1-8.9,6.5-15.4,6.5
			C475.1,344.4,467.2,335.7,467.2,324z M495.5,320.2c-0.9-4.6-3.8-8.1-8.8-8.1c-4.8,0-8.1,3.1-9.1,8.1H495.5z"/>
		<path class="st1" d="M516.2,354.7c-1-0.9-0.8-2,0.2-2.9l3.8-3.2c0.9-0.8,1.9-0.8,2.9,0c2.7,2.2,5.7,2.7,8.2,2.7
			c3.7,0,10.3-2,10.3-10.5v-1.4c-2.6,3-6.4,4.8-11.3,4.8c-10.7,0-18.4-8.6-18.4-20.2s7.7-20.1,18.4-20.1c4.9,0,8.7,1.8,11.3,4.8
			v-2.2c0-1.3,0.8-2,2-2h6.5c1.3,0,2,0.8,2,2v34.3c0,11.2-7.4,19.4-20.9,19.4C525.2,360.2,519.9,358.1,516.2,354.7z M541.6,324
			c0-5.9-3.9-10.2-9.8-10.2c-5.9,0-9.7,4.3-9.7,10.2c0,5.9,3.8,10.2,9.7,10.2C537.7,334.2,541.6,329.9,541.6,324z"/>
		<path class="st1" d="M561.6,328.5v-21.9c0-1.3,0.8-2,2-2h6.5c1.3,0,2,0.8,2,2v20.2c0,6.9,4.8,8.5,7.9,8.5c3.1,0,7.6-1.6,7.6-8.5
			v-20.2c0-1.3,0.8-2,2-2h6.5c1.3,0,2,0.8,2,2v35c0,1.3-0.8,2-2,2h-6.5c-1.3,0-2-0.7-2-1.8V340c-3,3.1-7.1,4.2-10.9,4.2
			C569.9,344.3,561.6,340.4,561.6,328.5z"/>
		<path class="st1" d="M607.8,341.5v-35c0-1.3,0.8-2,2-2h6.5c1.3,0,2,0.8,2,2v5c2.9-4.6,7.2-6.9,11.6-7.5c1.4-0.2,2.1,0.6,2.1,2v5.9
			c0,1.3-0.7,2-2,2c-4.5,0.4-11.8,2.2-11.8,11.7v15.9c0,1.3-0.8,2-2,2h-6.5C608.5,343.6,607.8,342.8,607.8,341.5z"/>
		<path class="st1" d="M635.8,324c0-11.8,8.3-20.3,20.1-20.3c11.9,0,20.1,8.5,20.1,20.3c0,11.6-8.2,20.4-20.1,20.4
			C644.1,344.4,635.8,335.7,635.8,324z M665.6,324c0-5.9-3.8-10.2-9.7-10.2c-5.8,0-9.7,4.3-9.7,10.2c0,5.9,3.9,10.2,9.7,10.2
			C661.8,334.2,665.6,329.9,665.6,324z"/>
		<path class="st1" d="M681.7,337c-0.7-1.1-0.3-2,0.8-2.8l4-2.6c1-0.7,1.9-0.4,2.7,0.5c1.9,2,5.5,4.2,9.3,4.2c3.7,0,5.6-1.1,5.6-3.7
			c0-3.1-5-4-8.1-5s-13.5-3.5-13.5-12.1c0-8.3,7.3-11.9,15.7-11.9c7.4,0,12.6,3,15.1,6.5c0.8,1.1,0.4,2.1-0.7,2.8l-3.6,2.3
			c-1,0.7-2,0.5-2.9-0.3c-1.9-1.6-5.1-3.2-8.3-3.2c-3.5,0-5,1.4-5,3.3c0,3.1,4.8,4,7.9,5c3.1,1,13.7,3.7,13.7,12.2
			c0,8.2-6.1,12.6-16.1,12.6C689.9,344.8,684.2,341.1,681.7,337z"/>
	</g>
	<path class="st2" d="M428.3,111c74.8-85.9,227.7-60.6,276.6,40.6c3,6.4,5.6,13,7.4,19.8c-2.9-2.1-5.5-4.3-8.2-6.5
		c-7.3-5.8-16.4-12.7-24.1-17.9C601.5,92.9,518.7,84.9,428.3,111L428.3,111z"/>
</g>
</svg>
